<?xml version="1.0" encoding="UTF-8"?>
<svg id="Layer_1" data-name="Layer 1" xmlns="http://www.w3.org/2000/svg" viewBox="0 0 831.3 422.6">
  <defs>
    <style>
      .cls-1 {
        fill: #fff;
      }

      .cls-2 {
        fill: #00aeef;
      }
    </style>
  </defs>
  <path class="cls-2" d="M518.58,354.98l-6.88,3.94c-.72.41-1.2,1.14-1.33,1.96-3.33,20.69-22.8,37.68-40.3,47.21-55.29,30.09-124.15,11.5-160.11-38.43-.8-1.12-2.3-1.48-3.51-.82-1.9,1.04-3.82,2.06-5.89,2.74-14.91,4.88-62.73,4.92-79.91,2.87-10.98-1.31-21.66-8.96-28.5-17.7-.9-1.16-2.55-1.42-3.73-.55-16.03,11.77-38.23,18.08-57.88,19.35-22.86,1.48-61.51,2.06-83.97,0C18.1,372.93-1.15,345.6.05,318.07c1.05-23.9,7.01-50.55,8.98-75.02,4.41-54.88,2.49-111.21-2-165.98C5.85,62.6-.1,37.74,3.73,24.75,9.2,6.18,25.1,1.5,42.5.52c21.74-1.21,51.04-.08,73.08,1,13.61.67,30.77,3.07,43.72,7.28,9.57,3.11,18.27,8.18,26.83,13.33,1.27.77,2.92.36,3.71-.91,9.83-15.81,22-19.7,40.7-20.11,20.93-.46,48.44-1.07,68.99.45,13.23.98,26.54,5.83,38.54,11.28.92.42,2,.29,2.8-.34,7.87-6.1,15.16-10.17,25.63-10.99,18.27-1.45,45.51-.93,64.07,0,7.93.4,13.83,3.25,22.48.16.29-.1.6-.16.91-.16h329.47c.1,0,.19.01.29.02,24.56,2.26,42.54,22.27,44.36,46.48,1.18,15.67,1.98,66.03-1.74,79.34-1.55,5.54-4.89,11.1-8.32,15.68-2.23,2.98-5.48,3.86-6.03,7.97-1.91,14.33,1.37,32.81.18,47.82-.06.77.21,1.53.74,2.1,11.22,11.91,16.15,23.19,17.17,40.09,1.47,24.1,1.78,61.12-.05,85.03-1.85,24.14-14.92,41.95-38.61,47.98-.21.05-.43.08-.65.09-39.64.59-83.72,4.15-123.21,1.43-4.57-.31-11.05-1.35-15.52-2.48-3.83-.97-13.16-6.24-14.67-6.33-.95-.05-6.89,3.78-9.07,4.58-15.4,5.61-66.59,6.29-82.47,1.95-8.4-2.3-18.78-9.35-23.59-17.34-.76-1.26-2.39-1.69-3.67-.95ZM209.07,67.5c.27,2.78-3.35,4.1-4.93,1.8-2.88-4.17-5.76-8.35-9.12-12.21-23.99-27.61-50.59-34.95-86.43-36.57-20.37-.92-51.22-1.77-71.08,0-22.94,2.05-13.91,23.69-12.47,38.55,6.52,67.27,8.45,136.69,2.01,203.98-1.71,17.87-10.57,56.06-5.18,71.19,3.8,10.66,14.06,20.31,25.65,21.35,21.89,1.96,58.77,1.33,81.08,0,27.03-1.61,48.76-12.17,67.24-30.64,1.59-1.59,4.29-.63,4.6,1.6,1.52,11.16,7.5,22.99,18.07,27.05,8.9,3.42,50.66,2.79,62.04,1.94,10.03-.75,18.22-2.81,24.15-11.37.13-.18.23-.39.32-.6l2.55-6.58c.88-2.26,4.04-2.32,5.02-.1,25.8,58.66,107.13,89.38,159.95,45.63,10.25-8.49,18.78-19.06,17.87-32.92-.07-1.14.59-2.2,1.64-2.66,13.41-5.87,26.04-15.58,33.75-28.17,1.27-2.07,4.39-1.59,4.96.77l3.99,16.64c.03.11.06.22.09.32,3.95,11.05,11.89,17.97,23.74,19.04,11.14,1.01,51.02,1.38,60.19-1.77,8.6-2.96,14.15-10.06,16.99-18.28.91-2.62,4.7-2.32,5.22.4h0c.03.14.06.28.11.42,3.91,11.33,12.44,18.05,24.48,19.25,37.28,3.7,80.54-2.62,118.49-.13.26.02.53,0,.78-.06,20.77-4.75,25.26-18.81,26.26-38.26,1.08-21.1,1.34-50.1,0-71.08-.93-14.65-5.37-28.7-19.45-34.53-1.35-.56-1.98-2.11-1.47-3.47,1.97-5.2,2.61-11.57,2.92-16.91.97-16.41.79-35.46-2.61-51.64-.27-1.3.41-2.6,1.65-3.1,11.21-4.53,16-11.64,16.96-24.26,1.21-15.94,1.04-41.03,0-57.08-.95-14.71-7.57-31.99-24.5-33.5-41.54-3.71-87.91,3.63-129.79-.98-.14-.02-.28-.02-.42,0-16.56,1.03-34.5-1.28-50.87,0-8,.62-12.94,3.21-16.06,9.25-.93,1.8-3.41,1.98-4.61.35-4.33-5.89-10.2-8.82-18.31-9.55-35.1-3.15-75,3.99-110.73.98-.18-.02-.37-.02-.55,0-4.15.47-7.03,3.18-9.76,5.99-1.04,1.07-2.76,1.1-3.83.05-2.77-2.74-5.92-5.24-9.86-5.91-.22-.04-.44-.04-.66-.03-20.34,1.58-44.83-2.52-64.6-.14-8.92,1.07-13.51,10.02-13.5,18.48,0,2.29-2.58,3.61-4.38,2.19-7.58-5.98-15.63-11.59-24.61-15.13-20.6-8.13-75.7-8.75-98.47-6.51-10.64,1.05-16.24,6.67-17.28,17.21-.02.18-.02.37,0,.56l2.79,29.16Z"/>
  <g>
    <path class="cls-1" d="M45.21,41.92c.98-1.12,2.47-1.67,3.97-1.64,55.46.91,115.13-11.4,147.71,44.24,27.63,47.19,27.42,153.13-2.94,199.14-33.05,50.09-92.61,34.05-144.09,36.67-.36.02-.73.01-1.09-.05-11.13-1.98-3.9-23.29-2.99-31.69,6.75-62.33,9.76-128.13,5.02-190.63-1.2-15.81-6.56-34.77-6.92-49.63-.07-2.69-.08-4.79,1.34-6.42ZM111.93,226.64c7.52,7.3,23.86.3,30.68-5.55,22.28-19.11,21.59-85.41,1.5-105.67-9.43-9.5-31.07-18.83-34.32.42-.07.39-.08.8-.05,1.19,2.2,33.08-3.07,70.07-.09,102.62.18,2.02.86,5.59,2.29,6.98Z"/>
    <path class="cls-1" d="M225.59,42.22c1.1-1.29,2.76-1.96,4.46-1.94,50.18.76,104.79-11.58,129.18,43.87,12.92,29.38,12.26,77.54-12.42,100.93-3.41,3.23-15.15,9.24-16.29,11.1-.99,1.62-1.31,2.84-.73,4.69,13.03,26.96,26.85,54.24,44.59,78.48,17.24,23.55,35.12,42.71,64.98,49.45,7.72,1.74,27.01.57,21.28,13.9-2.24,5.22-18.51,14.69-24.06,17.02-48.19,20.16-93.87-5.48-115.01-49.43-14.34-29.81-17.75-66.09-30.48-94.36-5.86-13.01-8.73,6.83-8.69,12.45.2,27.34,6.24,55.19,9.84,82.2.05.38.07.76.04,1.14-.37,5.76-2.3,8.13-8.29,8.67-13.41,1.21-44.9,1.49-57.99-.02-1.95-.23-4.98-1.08-5.87-2.94-2.38-4.98,5.1-39.19,6.22-47.37,8.49-62.16,9.96-128.13,2.98-190.47-.78-7-6.21-32.04-4.27-36.6.09-.22.28-.49.51-.77ZM286.01,157.79c.49,2.22,2.26,3.94,4.5,4.41,34.25,7.21,37.75-60.7,9.91-65.48-3.96-.68-10.22-.97-13.04,2.18-5.1,5.69-2.36,29.23-2.07,37.13.16,4.38-.65,15.59.71,21.75Z"/>
    <path class="cls-1" d="M714.8,196.09c-6.12,6.07-5.49,24.32-.19,31.16,5.83,7.51,21.92,8.84,30.82,8.46,8.8-.38,29-6.95,35.55-4.17,2.86,1.21,4.4,4.51,4.22,7.49-1.68,22.25,2.07,47.28,0,69.19-.61,6.38-3.39,11.33-10.32,12.15-37.61-2.62-79.84,3.4-116.9.02-4.76-.43-9-2.95-9.11-8.29-.13-6.83,5.08-22.41,6.42-30.48,11.25-68.01,9.35-148.4,8.19-217.77-.11-6.51-4.61-22.56,5.3-23.85l108.59.48c3.17,1.31,4.49,3.53,4.88,6.84,2.19,18.66-1.72,41.31.03,60.41.05,2.42-1.68,4.1-3.75,5.03-7.83,3.5-30.07-5.53-40.11-6.42-11.75-1.04-25.25-.28-26.88,13.98-1.7,14.9,1.15,27.38,18.91,24.59,10.23-1.61,34.14-16.48,36.11,4.58.97,10.39.98,31.55,0,41.92-1.23,12.99-11.95,12.55-22.16,9.25-8.51-2.75-21.18-12.9-29.58-4.58Z"/>
    <path class="cls-1" d="M381.89,231.04c1.11-1.11,3.17-1.25,4.68-.82,3.66,1.04,12.38,8.27,17.97,10.49,22.23,8.81,50.92,3.3,53.67-24.03.34-3.33.46-18.04-.65-23.07-.2-.88-.86-1.58-1.74-1.82h0c-.94-.26-1.94.06-2.56.81-12.11,14.59-26.03,25.5-46.53,19.66-32.88-9.37-22.13-61.19-23.09-86.12-.7-18.15-4.59-35.75-9.16-53.21-1.64-6.28-9.27-25.02-7.06-29.94,1.11-2.47,3.45-2.77,5.8-3,11.29-1.09,39.07-1.25,50.15.04,12.02,1.4,7.39,18.03,7.3,25.77-.26,21.97-2.67,47.74-.93,69.13.47,5.73,1.88,15,7.47,17.89,10.7,5.53,13.66-9.96,14.82-17.17,3.92-24.37,2.08-51.89,1.24-76.61-.2-5.84-3.94-13.39,1.2-17.87.45-.39,1.04-.61,1.64-.61h49.53c1.54-.01,2.7,1.38,2.41,2.88l-.76,3.88c-9.79,42.04-14.19,80.42-9.83,123.63,3.95,39.18,27.15,121.64-22.33,141.38-45.62,18.2-79.51-28.22-91.57-65.45-1.17-3.6-4.6-12.93-1.71-15.83Z"/>
    <path class="cls-1" d="M581.81,206.33c2.4-1.46,6.13-26.2,6.83-30.68,6.47-41.63,6.44-79.84,7.13-121.39.03-1.93.98-10.73,1.54-12.05.92-2.15,3.71-2.04,5.69-2.21,13.53-1.12,29.09.56,42.8.47,6.11,2.38,5.2,8.13,4.84,13.67-2.67,41.43-18.5,90.82-24.39,133.49-4.38,31.7-6.96,65.22-9.95,97.19-.8,8.58.02,21.36-2.02,29.14-.91,3.49-4.85,6-8.27,6.4-11.42,1.33-43.59,1.32-55.02,0-10.51-1.21-7.64-14.56-8.33-21.91-3.25-34.35-4.26-68.84-7.85-103.17-4.32-41.24-13.75-83.58-16.67-124.6-.43-6.11-2.03-26.39,3.62-29.73,1.43-.85,3.07-.82,4.67-.96,7.9-.67,28.96-1.05,36.31.09,5.44.85,7,5.34,7.46,10.13,2.28,24.17-.83,53.03-.08,77.94.5,16.43,1.58,35.07,3,51.53.37,4.29,2.05,24.62,4.88,26.3.93.55,2.95.87,3.83.34Z"/>
  </g>
</svg>