<svg xmlns="http://www.w3.org/2000/svg" viewBox="0 0 32 32">
  <!-- Black background -->
  <rect width="32" height="32" fill="#000000"/>
  
  <!-- Gli Fiori logo in white, scaled and centered -->
  <g transform="translate(2, 2) scale(0.044)">
    <path fill="#ffffff" d="m566.78,488.9h-124.49c-.08-.25-.16-.5-.25-.74,1.94-.64,3.85-1.47,5.84-1.88,6.59-1.36,11.65-4.8,16.5-9.54,6.88-6.73,9.5-14.74,9.54-23.79.15-34.66.11-69.33-.01-103.99,0-2.24-1.27-4.48-1.94-6.71-2.15,1.19-4.41,2.22-6.43,3.59-5.46,3.71-10.4,8.53-16.32,11.15-13.98,6.18-28.91,7.21-44.07,5.71-24.59-2.43-47.2-10.37-66.68-25.64-16.68-13.08-30.11-28.96-38.49-48.88-7.91-18.8-12.73-38.07-12.24-58.59.42-17.52,4.05-34.3,11.49-50.14,8.99-19.16,20.63-36.2,37.12-50.11,22.22-18.74,48.01-28.64,76.17-32.33,17.32-2.27,35.04-1.67,52.08,3.14,12.06,3.41,23.79,8,35.67,12.06,3.06,1.05,4.3,3.03,4.29,6.4-.03,11.83.31,23.66.3,35.49,0,1.54-1.21,3.08-1.86,4.62-1.23-1.13-2.84-2.04-3.63-3.43-3.64-6.36-6.55-13.18-10.63-19.22-10.04-14.86-23.74-24.69-41.38-29.1-10.63-2.66-21.25-2.54-31.7-.49-9.12,1.79-16.75,7.21-23.37,13.69-17.41,17.04-25,38.63-29.22,62.04-3.84,21.31-4.71,42.68-3.42,64.19.63,10.6,1.22,21.27,2.97,31.72,1.39,8.3,3.91,16.55,7,24.39,3.71,9.4,8.2,18.54,13.02,27.43,6.28,11.57,15.99,19.08,28.73,23.08,16,5.03,36.03-.75,46.86-13.46,8.66-10.17,11.86-22.08,13.14-34.85.61-6.13,1.46-12.28,1.47-18.42.01-7.94-.07-15.98-1.28-23.8-1.34-8.65-7.71-14.34-15.05-18.12-5.39-2.77-11.65-3.84-17.5-5.71-1.86-.59-3.68-1.32-5.69-3.2,1.32-.46,2.64-1.31,3.96-1.32,63.99-.15,127.98-.24,191.97-.31.65,0,1.3.17,2.37.32v46.29c-.38.15-.76.31-1.14.46-1.03-1.15-2.17-2.22-3.05-3.47-.86-1.22-1.48-2.61-2.15-3.94-11.18-22.1-29.81-31.4-53.83-30.6-6.68.22-13.68,1.28-19.87,3.67-11.52,4.44-17.65,12.93-17.52,26.1.24,25.32-.33,50.66-.56,75.99-.06,6.33.7,7.13,7.15,7.22,7.33.11,14.66.16,22,.22,14.6.13,23.96-7.21,27.86-21.43.84-3.05.51-7.17,5.4-8.55v69.33c-.45.26-.9.51-1.35.77-.86-1.34-1.86-2.62-2.54-4.05-2.68-5.67-4.7-11.75-8.02-17.01-4.55-7.18-11.41-10.73-20.3-10.11-8.14.57-16.32.65-24.48.81-3.49.07-5.14,1.41-5.14,5.09.02,29.66-.35,59.33.08,88.99.13,9.09,6.09,15.85,13.83,20.1,5.31,2.92,11.4,4.41,17.13,6.58.7.27,1.32.76,1.98,1.15-.11.38-.21.75-.32,1.13Z"/>
    <path fill="#ffffff" d="m169.51,134.51c8.02-.72,16.04-1.98,24.07-2.04,15.23-.11,29.64,3.17,42.57,11.87,9.65,6.49,15.76,15.17,17.65,26.62.34,2.08.3,4.98-.88,6.43-9.33,11.43-10.59,24.78-9.91,38.69.04.83,0,1.67-.06,2.5-.02.3-.23.58-.54,1.34-3.94-3.06-7.92-5.86-11.57-9.05-5.8-5.07-12.54-6.51-19.97-6.04-4.48.28-8.99.27-13.46.7-1.23.12-2.35,1.37-3.52,2.1,1.13.91,2.13,2.32,3.4,2.66,16.01,4.2,28.86,17.62,26.58,35.59-.43,3.38-1.89,6.71-3.29,9.88-9.72,22.05-7.68,43.86,1.94,65.17,2.53,5.6,7.26,10.23,11.07,15.24,4.55,5.97,7.52,12.46,7.44,20.13-.03,3.14-1.63,4.13-4.62,4.58-10.9,1.66-18.79-4.67-26.81-10.09-26.23-17.73-42.95-43.3-56.42-71.11-5.38-11.1-10.74-22.35-12.59-34.96-2.41-16.35.35-30.84,12.75-42.43,5.43-5.08,11.23-9.86,17.33-14.11,10.9-7.61,16.7-21.35,12.92-34.17-1.11-3.77-4.26-7.03-6.84-10.24-2.16-2.69-4.85-4.97-7.3-7.43.02-.6.04-1.21.06-1.81Z"/>
    <path fill="#ffffff" d="m452.67,372.23c-1,4.28-1.27,8.02-2.72,11.23-8.49,18.74-20.92,33.62-40.02,42.79-19.49,9.36-39.71,14.54-61.26,13.6-8.09-.35-16.1-2.34-24.15-3.61-5.5-.87-11.09-3.12-15.75,2.55-.52.63-4.52-.47-5.85-1.82-8.75-8.86-17.88-17.47-25.56-27.21-6.86-8.71-12.41-18.54-17.71-28.33-2.42-4.47-3.37-9.95-4-15.1-.79-6.49,3.57-9.8,9.98-7.55,5.92,2.08,11.33,5.61,17.26,7.66,9.84,3.41,19.81,6.61,29.93,9.01,8.83,2.09,18.47,1.58,26.79,4.75,7.85,2.99,14.41,9.32,21.6,14.1,1.68,1.12,3.58,1.91,5.37,2.85.46-1.99,1.38-4,1.28-5.96-.35-7.45-.48-7.49,7.03-7.62,5.49-.1,11.11.7,16.44-.23,10.1-1.76,19.99-4.66,30.04-6.72,8.45-1.73,17.01-3,25.53-4.37,1.58-.25,3.23-.04,5.75-.04Z"/>
    <path fill="#ffffff" d="m269.03,0c14.5,18.73,32.54,32.01,43.76,51.4,9.09,15.71,14.07,32.21,13.71,50.36-.06,2.88-.39,5.28-3.85,4.86-6.73-.83-10.41,3.51-13.95,7.94-5.18,6.49-10.13,13.16-15.2,19.73-1.29,1.67-2.67,3.28-4.97,6.08,0-3.12-.31-4.9.05-6.54,3.57-16.47,3.38-33.17,1.42-49.67-1.34-11.26-5-22.26-7.88-33.32-.28-1.08-2.33-1.7-3.56-2.53-.57,1.41-1.76,2.89-1.59,4.21.67,5.28,1.75,10.51,2.7,15.75,4.22,23.31,3.34,46.77,1.89,70.24-.19,3.12-.98,6.25-1.86,9.27-1.37,4.7-3.67,5.73-7.02,2.31-6.82-6.97-13.65-14.1-19.3-22-12.29-17.18-16.69-36.93-15.2-57.71.92-12.9,3.12-25.86,10.09-37.26,6.58-10.75,13.38-21.37,20.76-33.13Z"/>
    <path fill="#ffffff" d="m120.8,235.17c-10.86,17.24-23.49,31.83-43.82,36.54-10.13,2.35-20.66,1.14-30.33-3.23-13.54-6.12-26.85-12.77-36.64-24.47-3.61-4.31-6.88-9.02-9.54-13.96-.93-1.74-.42-5.5.93-7.01,10.69-11.94,21.92-23.58,36.86-30.05,21.82-9.45,43.61-13.82,65.22,1.95,7.67,5.6,13.4,12.32,18.39,19.96,1.5,2.3,1.67,5.47,2.65,8.98-2.93.17-4.86.38-6.79.37-15.65-.07-31.3-.19-46.96-.29-1.17,0-2.43-.29-3.47.07-1.86.64-3.58,1.68-5.36,2.55,1.79,1.14,3.5,3.1,5.37,3.27,7.95.75,15.96.75,23.92,1.43,8.78.75,17.51,1.92,26.26,2.95.93.11,1.82.51,3.31.95Z"/>
    <path fill="#ffffff" d="m171.87,321.91c3.83,4.89,7.68,9.77,11.48,14.69,9.05,11.72,19.33,22.09,32.95,28.4,8.61,3.99,17.81,3.39,26.95,2.07,1.4-.2,2.8-.49,3.15-.55,10.08,30.25,24.76,56.37,50.24,75.45,5.31,3.98,10.45,8.18,15.6,13.48-9.15.42-18.37,1.78-27.44,1.09-25.59-1.94-49.62-9.44-71.63-22.85-2.93-1.79-5.85-3.94-8.07-6.52-19.1-22.25-29.11-48.11-30.84-77.38-.54-9.07-2.31-18.08-3.52-27.11.38-.26.75-.51,1.13-.77Z"/>
    <path fill="#ffffff" d="m89.31,102.62c8.44,2.35,16.57,4.5,24.63,6.9,4.94,1.47,9.72,3.45,14.65,4.95,14.73,4.48,26.32,13.5,35.57,25.43,6.68,8.62,9.79,18.81,9.48,29.81-.15,5.32-9.29,14.19-14.52,14.12-1.37-.02-3.11-1.27-4.01-2.46-8.25-10.86-17.32-21.26-24.07-33-3.31-5.76-8.58-8.98-12.02-14.12-.59-.88-2.54-.84-3.86-1.23-.04,1.63-.74,3.67-.03,4.84,4.7,7.65,9.76,15.08,14.6,22.65,5.02,7.85,10.16,15.64,14.79,23.72,2.88,5.02,4.58,9.91,1.16,16.26-3.7,6.89-14.55,8.82-20.11,3.15-10.72-10.9-23.03-19.44-35.98-27.32-1.64-1-2.76-3.74-3.11-5.84-3.14-19.25-2.28-38.45,1.14-57.59.55-3.07,1.02-6.15,1.7-10.27Z"/>
    <path fill="#ffffff" d="m357.45,381.72c-4.43-2.8-8.79-5.72-13.3-8.39-9.91-5.87-21.11-5.38-32.02-6.24-23.92-1.9-41.67-14.26-55.81-32.78-4.2-5.5-9.11-10.65-12.29-16.7-3.97-7.56-7.89-15.65-9.29-23.94-2.2-13.05-2.41-26.45-3.2-39.71-.35-5.81-.12-11.66-.07-17.49.07-7.8-1.69-14.86-7.85-20.29,9.82,3.4,14.51,11.4,18.99,20,8.71,16.73,11.82,35.26,17.45,52.95,4.43,13.93,12.26,25.51,21.86,35.87,5.89,6.35,13.24,11.54,20.52,16.36,13.98,9.26,28.5,17.71,42.55,26.87,5.11,3.33,9.54,7.71,14.29,11.61-.61.63-1.22,1.26-1.83,1.89Z"/>
    <path fill="#ffffff" d="m163.79,65.1c19.99-2.62,39.82-7.89,60.24-3.22,6.2,1.42,7.84,2.86,7.02,8.63-1.48,10.33.61,20.19,3.2,30.04.28,1.08.52,2.17.86,3.61-8.1-5.63-15.81-10.99-23.52-16.34-.68-.47-1.42-1.17-2.15-1.2-1.65-.06-3.32.23-4.97.38.55,1.43.69,3.3,1.7,4.21,6.05,5.41,11.99,11.04,18.56,15.77,11.24,8.09,18.48,19.45,26.37,30.32,4.75,6.54,9.36,13.17,13.3,20.6-1.75-1.31-3.62-2.49-5.23-3.96-9.34-8.55-19.24-16.2-30.44-22.35-9.49-5.21-19.4-7.12-29.8-5.93-9.39,1.07-14.16-3.21-18.94-10.8-9.67-15.35-14.18-32.03-16.2-49.77Z"/>
    <path fill="#ffffff" d="m132.57,240.02c3.12,12.04,6.14,23.05,8.72,34.17.49,2.09-.14,5-1.34,6.81-3.28,4.96-7.23,9.47-10.69,14.32-.8,1.12-.7,2.89-1.02,4.36,1.64-.23,3.6.04,4.85-.78,3.75-2.45,7.24-5.29,10.78-8.04,2.49-1.94,4.43-1.75,6.13,1.05,4.31,7.09,8.83,14.06,12.92,21.28.56.99-.4,3.98-1.46,4.56-7.87,4.25-15.61,9.24-24.05,11.83-9.24,2.83-19.18,3.47-28.86,4.66-1.15.14-3.19-1.99-3.83-3.49-3.42-8.04-4.67-16.47-4.51-25.24.3-15.85,2.07-31.12,11.92-44.45,5.96-8.05,13.03-14.79,20.44-21.03Z"/>
    <path fill="#ffffff" d="m431.64,86.3c-1.91.2-3.18.49-4.45.43-13.76-.63-27.19,1.65-40.62,4.3-3.96.78-8.23-.21-12.29.26-6.69.78-13.33,2.05-19.98,3.19-5.66.97-11.29,2.18-16.99,2.91-.91.12-2.71-1.62-3.01-2.78-1.97-7.73-3.79-15.52-5.29-23.35-.28-1.46.63-3.99,1.82-4.74,8.99-5.71,18.04-11.57,29.04-12.47,4.26-.35,8.7-.37,12.86.47,11.53,2.34,23.25,4.31,34.32,8.12,11.21,3.85,18.3,13.18,24.59,23.67Z"/>
    <path fill="#ffffff" d="m374.32,48.78c20.32-6.66,40.43-10.82,60.71-.4,14.92,7.66,26.68,18.59,36.46,31.93,2.62,3.57,5,7.32,8.09,11.86-2.88-.34-4.63-.49-6.37-.75-10.02-1.5-20.05-2.91-30.04-4.62-1.9-.32-4.49-1.38-5.25-2.87-12.25-23.86-33.99-31.31-58.42-34.26-1.74-.21-3.45-.59-5.17-.89Z"/>
    <path fill="#ffffff" d="m326.2,118.65c-5.57,5.22-10.66,9.96-15.71,14.73-19.7,18.65-31.4,41.83-38.16,67.75-1.15,4.42-2.74,7.93-6.69,10.97-5.45,4.2-9.86,9.75-15.33,14.39-.81-11.18-.62-21.94,3.15-32.41,5.6-15.52,16.26-27.06,28.05-38.17,10.96-10.33,20.92-21.79,30.72-33.28,3.83-4.5,7.48-6.15,13.97-3.99Z"/>
    <path fill="#ffffff" d="m267.58,225.05c.91,9.98,1.34,19.11,2.69,28.11,1.03,6.85,2.54,13.79,5.05,20.21,3.45,8.84,1.99,12.07-8.77,20.39-1.89-5.9-3.93-11.4-5.39-17.06-1.94-7.5-3.01-15.24-5.21-22.65-1.96-6.61-1.75-12.23,3.1-17.57,3.08-3.38,5.51-7.35,8.53-11.44Z"/>
    <path fill="#ffffff" d="m316.37,342.09c-19.95-8.29-35.87-21-46.07-40.89,2.71-2.95,5.59-6.08,9.48-10.3,8.86,20.15,21.52,36.48,36.59,51.2Z"/>
    <path fill="#ffffff" d="m254.68,342.8c-34.7-15.22-41.23-56.12-29.2-82.63-2.38,31.86,6.48,59.7,29.2,82.63Z"/>
    <path fill="#ffffff" d="m346.58,362.67c15.42,6.74,31.19,11.78,48.32,12.03-4.58,3-14.21,2.47-26.59,2.11-6.71-.2-10-2.54-21.74-14.14Z"/>
  </g>
</svg>